<?xml version="1.0" standalone="no"?>
<!DOCTYPE svg PUBLIC "-//W3C//DTD SVG 20010904//EN"
 "http://www.w3.org/TR/2001/REC-SVG-20010904/DTD/svg10.dtd">
<svg version="1.0" xmlns="http://www.w3.org/2000/svg"
 width="920.000000pt" height="600.000000pt" viewBox="0 0 920.000000 600.000000"
 preserveAspectRatio="xMidYMid meet">

<g transform="translate(0.000000,600.000000) scale(0.100000,-0.100000)"
fill="#000000" stroke="none">
<path d="M5020 3265 l0 -1635 240 0 240 0 0 1635 0 1635 -240 0 -240 0 0
-1635z"/>
<path d="M6812 4863 c-16 -21 -273 -361 -571 -757 l-541 -719 0 -124 0 -124
377 -457 c207 -251 487 -591 622 -754 l244 -298 309 0 c169 0 308 2 308 5 0 2
-26 35 -58 72 -32 38 -150 178 -263 313 -113 135 -394 470 -624 745 -230 274
-418 504 -418 510 0 6 277 372 616 812 340 441 617 804 617 807 0 3 -132 6
-294 6 l-294 0 -30 -37z"/>
<path d="M3898 4418 c-695 -883 -1855 -2354 -2026 -2571 l-172 -217 307 2 306
3 974 1303 973 1304 0 -1306 0 -1306 240 0 240 0 0 1625 0 1625 -239 0 -239 0
-364 -462z"/>
</g>
</svg>
